<svg height="512" viewBox="0 0 59 60" width="512" xmlns="http://www.w3.org/2000/svg"><g id="Page-1" fill="none" fill-rule="evenodd"><g id="043---Eating-Breakfast" fill="rgb(0,0,0)" fill-rule="nonzero"><path id="Shape" d="m35.936 29.352c.115507-.3071436.0729756-.6514118-.1138078-.92121s-.4940473-.43079-.8221922-.43079h-12c-.3283217-.0003284-.6358888.1605284-.8229078.4303786-.1870189.2698502-.2296616.6143122-.1140922.9216214 1.1562887 2.8120871 3.8959675 4.6478135 6.9365 4.6478135s5.7802113-1.8357264 6.9365-4.6478135zm-6.936 2.648c-1.6480558.0304798-3.2161342-.7090054-4.241-2h8.481c-1.0244543 1.2909603-2.5922269 2.0304756-4.24 2z"/><path id="Shape" d="m26 23c0-.5522847-.4477153-1-1-1h-.184c.1184378-.320257.1806856-.6585603.184-1 0-1.6568542-1.3431458-3-3-3s-3 1.3431458-3 3c.0033144.3414397.0655622.679743.184 1h-.184c-.5522847 0-1 .4477153-1 1s.4477153 1 1 1h6c.5522847 0 1-.4477153 1-1zm-5-2c0-.5522847.4477153-1 1-1s1 .4477153 1 1-.4477153 1-1 1-1-.4477153-1-1z"/><path id="Shape" d="m33 24h6c.5522847 0 1-.4477153 1-1s-.4477153-1-1-1h-.184c.1184378-.320257.1806856-.6585603.184-1 0-1.6568542-1.3431458-3-3-3s-3 1.3431458-3 3c.0033144.3414397.0655622.679743.184 1h-.184c-.5522847 0-1 .4477153-1 1s.4477153 1 1 1zm2-3c0-.5522847.4477153-1 1-1s1 .4477153 1 1-.4477153 1-1 1-1-.4477153-1-1z"/><path id="Shape" d="m28 26h2c.5522847 0 1-.4477153 1-1s-.4477153-1-1-1h-2c-.5522847 0-1 .4477153-1 1s.4477153 1 1 1z"/><path id="Shape" d="m58.174 28.743c-.2614828-.0481695-.531361.0105359-.749207.1629717s-.365461.3858676-.409793.6480283l-.694 3.938-1.97-.348.694-3.938c.0828302-.5373679-.2788697-1.0424504-.8142858-1.1370796-.5354162-.0946291-1.0483318.2558743-1.1547142.7890796l-.7 3.939-1.969-.347.694-3.938c.0828302-.5373679-.2788697-1.0424504-.8142858-1.1370796-.5354162-.0946291-1.0483318.2558743-1.1547142.7890796l-.865 4.906c0 .006-.006.011-.007.017l-.52 2.96c-.280632 1.539032.1969076 3.119044 1.283 4.245l-1.302 7.408c-.48673.1550745-.9337841.4144342-1.31.76-1.3741787-4.0905418-5.0247123-6.9909925-9.32-7.405-.36-.034-.72-.055-1.091-.055h-2.917c.059-.9.145-1.573.244-2.328.043-.329.088-.688.133-1.071 7.308-1.4 9.551-6.318 10.236-10.622.1.006.2.021.3.021 2.7614237 0 5-2.2385763 5-5s-2.2385763-5-5-5v-5.5c0-.023-.005-2.364-.054-2.662-.578-3.553-5.042-8.838-14.942-8.838-9.787 0-15 5.518-15 9.5v7.5c-2.7614237 0-5 2.2385763-5 5s2.2385763 5 5 5c.1 0 .2-.015.3-.021.685 4.3 2.928 9.219 10.236 10.622.045.383.09.742.133 1.071.1.755.185 1.433.244 2.328h-2.913c-.371 0-.731.021-1.1.055-4.2946034.4163299-7.9429697 3.3188846-9.314 7.41-.3805443-.3484129-.8328198-.6091966-1.325-.764l-1.318-7.675c1.04170587-1.6035624 1.4126195-3.5518461 1.033-5.426-.27561394-1.8871511-1.28106865-3.5906787-2.8-4.744-.92971892-.6953787-2.10167597-.984038-3.248-.8-2.758.493-4.423 3.69-3.789 7.276.2763787 1.9100755 1.30689787 3.6296486 2.861 4.774l1.061 6.006c-.54499454.3602353-.94795385.8985748-1.14 1.523-.06808824.2400573-.1123028.4862521-.132.735.00310188.1482074-.02732225.2952004-.089.43-1.48693828 1.5039684-2.0402589 3.6965732-1.445 5.726.81378444 2.4343199 3.00673525 4.1442385 5.566 4.34.252.0253333.50266667.0376667.752.037 2.27381126.0318108 4.4188278-1.0528405 5.741-2.903h31.366c1.3217916 1.8481209 3.4650647 2.9315255 5.737 2.9.25 0 .5-.012.752-.037 2.5593654-.1955015 4.7524432-1.9055191 5.566-4.34.5960974-2.0297228.0426922-4.2230457-1.445-5.727-.060607-.133029-.0910014-.2778291-.089-.424-.019502-.2473842-.0633815-.4922386-.131-.731-.1921673-.6333241-.6010412-1.1788434-1.155-1.541l1-5.724c1.4147377-.7062711 2.4100937-2.0423194 2.682-3.6l.517-2.946v-.012l.868-4.924c.0914837-.5402373-.268818-1.0534889-.808-1.151zm-11.174-6.743c0 1.6568542-1.3431458 3-3 3-.028 0-.053-.011-.081-.011.081-1.128.081-2.157.081-2.989v-3c1.6568542 0 3 1.3431458 3 3zm-18-20c8.6 0 12.519 4.393 12.965 7.111.02.241.035 2.084.035 2.389v.481c-11.651-.2-16.332-3.728-16.375-3.762-.2716787-.21186519-.632881-.26996764-.9572961-.15398922-.3244152.11597842-.566917.38990508-.6427039.72598922-.037.164-.981 3.851-8.0220015 4.177l.0000015-3.468c-.003-3.065 4.626-7.5 12.997-7.5zm-15 23c-1.6568542 0-2.9999999-1.3431458-2.9999999-3s1.3431457-3 2.9999999-3v3c0 .832 0 1.861.081 2.989-.028 0-.053.011-.081.011zm2-3v-7.026c6.144-.258 8.557-2.867 9.464-4.493 2.064 1.161 7.2 3.355 16.536 3.505v8.014c0 5.236 0 14-13 14s-13-8.764-13-14zm9 22c0 .5522847.4477153 1 1 1s1-.4477153 1-1c.0304602-1.8681055-.0845539-3.7357477-.344-5.586-.021-.166-.044-.347-.066-.524.758.069 1.557.11 2.41.11s1.652-.041 2.41-.11c-.022.177-.045.358-.066.524-.2594461 1.8502523-.3744602 3.7178945-.344 5.586 0 .5522847.4477153 1 1 1s1-.4477153 1-1c0-.36 0-.691.007-1h2.893c-.558 2.833-3.433 5-6.9 5s-6.337-2.167-6.895-5h2.888c.007.309.007.64.007 1zm-4.887-.8c.656 3.843 4.387 6.8 8.887 6.8s8.231-2.956 8.887-6.8c3.974372.8382634 6.8855599 4.248336 7.09 8.305-.5761184.313221-1.0126022.8325723-1.222 1.454-.1963767.6658722-.1984584 1.3739847-.006 2.041h-2.749v-3c0-.5522847-.4477153-1-1-1s-1 .4477153-1 1v3h-20v-3c0-.5522847-.4477153-1-1-1s-1 .4477153-1 1v3h-2.755c.19119-.666562.1887622-1.3737664-.007-2.039-.2089917-.6190109-.6425415-1.1371297-1.215-1.452.201989-4.0584559 3.1138718-7.4709854 7.09-8.309zm-18.008-7.214c-.425-2.4.569-4.675 2.167-4.961.62188491-.0851488 1.2519972.081921 1.75.464 1.07988914.8532174 1.78997121 2.089326 1.983 3.452.28149072 1.3519092.03076021 2.7602983-.7 3.932-.32402321.4432905-.45626874.9982172-.367 1.54l1.282 7.264c-.09.023-.171.046-.165.059-.05320143-.0441878-.10363026-.0916109-.151-.142-.12323003-.1313814-.25701029-.2524525-.4-.362-.43261943-.3355202-.9504598-.5433491-1.495-.6l-1.036-5.874c-.10297796-.5426623-.42017492-1.0209809-.88-1.327-1.08631012-.8453651-1.79962435-2.0814655-1.988-3.445zm9.751 19.614c-1.0406249 1.6245051-2.92142871 2.5073472-4.836 2.27-1.78173105-.1155081-3.31399293-1.303308-3.87-3-.34984489-1.3460248.05124283-2.776189 1.05-3.744.36181839-.4362186.56800655-.9805413.586-1.547.00689119-.1208125.02530819-.2406904.055-.358.06295627-.2112313.20669161-.3891038.4-.495.13660029-.0739321.28967986-.112116.445-.111.2265967.000106.44675847.075369.626.214.06555878.0511915.12646262.1080797.182.17.34148536.3996102.82324077.653015 1.346.708.33067506.0132692.66138013-.025538.98-.115.10103727-.0301272.20438778-.0518676.309-.065.43785315-.0292901.86657362.1346272 1.1731981.4485614.3066245.3139342.4603977.7463969.4208019 1.1834386-.0830515.8652368.4070579 1.6837074 1.209 2.019.195625.0623793.3497785.2143041.415.409.0904788.7086071-.0844145 1.4256341-.491 2.013zm42.987-.724c-.5560071 1.696692-2.088269 2.8844919-3.87 3-1.9153626.234959-3.7955933-.6501299-4.835-2.276-.4033819-.5878795-.5753902-1.3040464-.483-2.011.062612-.189064.210936-.337388.4-.4.8061877-.3315738 1.3021231-1.1498875 1.223-2.018-.0410649-.4437051.1159447-.8828929.429-1.2.2828691-.2802318.6638418-.4391498 1.062-.443h.1c.106995.012611.2127142.034357.316.065.3194364.088785.6506932.1275779.982.115.5210035-.056118 1.0007977-.3094322 1.341-.708.0643413-.0702904.134968-.1345573.211-.192.3035261-.2245599.7087776-.2556435 1.043-.08.1944059.1069768.3383068.286853.4.5.0291573.1160262.0472384.2345575.054.354.017931.5659935.2237494 1.1099172.585 1.546.9960576.9698025 1.3940231 2.4001107 1.042 3.745zm.782-17.439c-.1641711.9366105-.7636339 1.7394824-1.615 2.163-.540564.2612152-.9247692.7638373-1.035 1.354l-1.006 5.686c-.5283821.0528119-1.0315648.2519379-1.453.575-.1542437.1156103-.298425.2440688-.431.384-.05.051-.118.119-.085.119-.0831608.0059567-.1665891-.0070362-.244-.038l1.244-7.04c.1014496-.6183695-.0945937-1.2483762-.529-1.7-.6395761-.6826235-.9191099-1.6272551-.754-2.548l.347-1.973 5.91 1.043z"/></g></g></svg>